<svg xmlns="http://www.w3.org/2000/svg" width="48" height="48" viewBox="0 0 48 48" fill="none"><g clip-path="url(#clip0_3589_251000)"><path d="M15.513 29.7435C15.8099 29.7436 16.1001 29.6557 16.3469 29.4909C16.5938 29.326 16.7862 29.0916 16.8997 28.8173C17.0133 28.5431 17.0429 28.2413 16.9849 27.9502C16.9269 27.6591 16.7837 27.3917 16.5737 27.182L13.3917 24L29.3016 8.0901C29.5829 7.80879 29.7409 7.42726 29.7409 7.02944C29.7409 6.63161 29.5829 6.25008 29.3016 5.96878C29.0203 5.68748 28.6388 5.52944 28.2409 5.52944C27.8431 5.52944 27.4616 5.68747 27.1803 5.96878L11.2704 21.8787L8.0884 18.6967C7.87867 18.4866 7.61132 18.3435 7.3202 18.2855C7.02909 18.2274 6.7273 18.2571 6.45304 18.3706C6.17878 18.4842 5.94438 18.6766 5.77952 18.9234C5.61465 19.1703 5.52674 19.4605 5.52691 19.7574L5.52691 28.2426C5.5268 28.4398 5.56554 28.635 5.64093 28.8171C5.71631 28.9993 5.82686 29.1647 5.96625 29.3041C6.10563 29.4435 6.27113 29.5541 6.45327 29.6295C6.63541 29.7048 6.83062 29.7436 7.02774 29.7435L15.513 29.7435Z" fill="#011A72"></path><path d="M42.4697 19.758V28.2433C42.4699 28.5401 42.382 28.8303 42.2171 29.0772C42.0522 29.324 41.8178 29.5164 41.5436 29.63C41.2693 29.7436 40.9675 29.7732 40.6764 29.7152C40.3853 29.6571 40.1179 29.514 39.9082 29.3039L36.7262 26.122L20.8163 42.0319C20.535 42.3132 20.1535 42.4712 19.7557 42.4712C19.3578 42.4712 18.9763 42.3132 18.695 42.0319C18.4137 41.7506 18.2557 41.369 18.2557 40.9712C18.2557 40.5734 18.4137 40.1918 18.695 39.9105L34.6049 24.0006L31.4229 20.8187C31.2129 20.6089 31.0697 20.3416 31.0117 20.0505C30.9537 19.7593 30.9833 19.4576 31.0969 19.1833C31.2104 18.909 31.4028 18.6746 31.6497 18.5098C31.8965 18.3449 32.1867 18.257 32.4836 18.2572L40.9689 18.2572C41.166 18.2571 41.3612 18.2958 41.5433 18.3712C41.7255 18.4466 41.891 18.5571 42.0304 18.6965C42.1697 18.8359 42.2803 19.0014 42.3557 19.1835C42.4311 19.3657 42.4698 19.5609 42.4697 19.758Z" fill="#FF3300"></path></g><defs><clipPath id="clip0_3589_251000"><rect width="48" height="48" fill="white"></rect></clipPath></defs></svg>