<svg xmlns="http://www.w3.org/2000/svg" width="47" height="48" viewBox="0 0 47 48" fill="none"><g clip-path="url(#clip0_3589_250987)"><path d="M45.8876 43.5336L45.7504 43.3945L42.4316 46.7405L42.5121 46.8209L43.3919 47.7072C43.9556 48.277 45.1557 47.9888 46.0729 47.0656C46.9893 46.1402 47.2744 44.931 46.7106 44.3626L45.8883 43.5336H45.8869H45.8876Z" fill="#3452FF"></path><path d="M19.198 0C8.59462 0 0 8.66724 0 19.3583C0 30.0493 8.59462 38.7144 19.198 38.7144C23.1294 38.7144 26.7778 37.5218 29.823 35.4785C33.6093 38.7673 37.3963 42.056 41.1826 45.3448C42.3554 44.1624 43.529 42.9792 44.7018 41.7968C41.3981 38.0555 38.0944 34.3149 34.7907 30.5736C35.7545 29.2289 37.1608 26.9119 37.9026 23.7288C37.9026 23.7288 38.3989 21.5385 38.3989 19.3583C38.3982 8.66724 29.8036 0 19.198 0ZM19.4602 33.9927C11.4444 33.9927 4.94404 27.4412 4.94404 19.3576C4.94404 11.2739 11.4444 4.72245 19.4602 4.72245C27.4759 4.72245 33.977 11.2732 33.977 19.3576C33.977 27.4419 27.4781 33.9927 19.4602 33.9927Z" fill="#011A72"></path><path d="M21.78 10.9365L12.3494 22.8954C12.0377 23.2929 12.1024 23.8707 12.4966 24.1893C12.6647 24.3218 12.8651 24.3877 13.0647 24.3877C13.3319 24.3877 13.5991 24.2704 13.7793 24.0402L23.2085 12.0805C23.5231 11.683 23.4556 11.1052 23.0605 10.7888C22.6663 10.4753 22.0917 10.5383 21.7793 10.9358L21.78 10.9365Z" fill="#FF3300"></path><path d="M25.7357 14.9233L16.3051 26.8829C15.9913 27.2805 16.058 27.8583 16.453 28.1762C16.6211 28.3094 16.8215 28.3745 17.0204 28.3745C17.2883 28.3745 17.554 28.2551 17.7343 28.027L27.1649 16.0674C27.478 15.6698 27.412 15.092 27.017 14.7741C26.6241 14.4592 26.0481 14.5258 25.7357 14.9233Z" fill="#FF3300"></path></g><defs><clipPath id="clip0_3589_250987"><rect width="47" height="48" fill="white"></rect></clipPath></defs></svg>