<svg xmlns="http://www.w3.org/2000/svg" width="42" height="48" viewBox="0 0 42 48" fill="none"><g clip-path="url(#clip0_3589_250979)"><path d="M38.0991 15.6662V18.3968C38.0991 23.713 37.1993 28.3615 35.4236 32.2113C34.0041 35.2889 32.0253 37.8665 29.5419 39.8736C25.3639 43.2489 21.2627 43.8376 21.0003 43.8723C20.7345 43.8369 16.6351 43.2472 12.4581 39.8736C9.97469 37.8665 7.99626 35.2889 6.57677 32.2113C4.80103 28.3612 3.90054 23.713 3.90054 18.3968V11.9666L21 4.35759L31.8325 9.178L34.9414 6.20307L21 0L0 9.34371V17.9837C0 24.076 1.04893 29.4392 3.11709 33.923C4.81298 37.6009 7.1862 40.6888 10.1716 43.1003C15.2845 47.2315 20.4551 47.9307 20.6734 47.9592L21.0003 48L21.3272 47.9592C21.5453 47.9307 26.7155 47.2315 31.8284 43.1003C34.8138 40.6884 37.1877 37.6009 38.8839 33.923C40.9514 29.4392 42.0003 24.076 42.0003 17.9837V9.56809L38.0991 15.6658V15.6662Z" fill="#011A72"></path><path d="M40.7109 6.54987L23.4613 33.513C22.4052 35.1622 20.0354 35.2435 18.8732 33.667L7.88133 18.78C7.39679 18.1226 8.12497 17.2556 8.85075 17.6276L20.6162 23.6683L39.5323 5.56966C40.1916 4.93769 41.2047 5.77826 40.7109 6.54987Z" fill="#3452FF"></path><path d="M42 9.56842V17.9841C42 24.0763 40.9511 29.4395 38.8836 33.9233C37.1874 37.6013 34.8131 40.6891 31.8281 43.1007C26.7152 47.2318 21.5446 47.931 21.3269 47.9595L21 48.0003V43.8723C21.2621 43.8376 25.3632 43.2492 29.5415 39.8736C32.025 37.8665 34.0041 35.2888 35.4232 32.2113C37.199 28.3612 38.0988 23.713 38.0988 18.3968V15.6662L42 9.56842Z" fill="#FF3300"></path><path d="M34.9414 6.20307L31.8325 9.178L21 4.35759V0L34.9414 6.20307Z" fill="#011A72"></path></g><defs><clipPath id="clip0_3589_250979"><rect width="42" height="48" fill="white"></rect></clipPath></defs></svg>